<svg fill="none" height="512" viewBox="0 0 24 24" width="512" xmlns="http://www.w3.org/2000/svg"><g fill="rgb(0,0,0)"><path d="m14.4332 2.09869c.3465.16652.5668.5169.5668.9013v10.58581l1.0633 1.0633c.0373-.0995.0912-.1948.1622-.2817.4576-.5603.7745-1.3967.7745-2.3674s-.3169-1.8071-.7745-2.36742c-.3494-.42774-.2858-1.05771.1419-1.40707.4278-.34937 1.0577-.28583 1.4071.14191.7744.94813 1.2255 2.24208 1.2255 3.63258s-.4511 2.6845-1.2255 3.6326c-.1161.1422-.2633.2441-.4237.304l1.1163 1.1164c.936-1.2949 1.5329-3.0676 1.5329-5.053 0-2.15131-.7009-4.05293-1.7745-5.36742-.3494-.42774-.2858-1.05771.1419-1.40707.4278-.34937 1.0577-.28583 1.4071.14191 1.3904 1.70233 2.2255 4.06146 2.2255 6.63258 0 2.4957-.7868 4.7917-2.1047 6.4812l1.8118 1.8117c.3905.3905.3905 1.0237 0 1.4142-.3906.3905-1.0237.3905-1.4143 0l-17.99996-17.99999c-.39052-.39052-.39052-1.02368 0-1.41421.39052-.39052 1.02369-.39052 1.41421 0l3.7071 3.70709h.88429c.22707 0 .44738-.07728.62469-.21913l4.45217-3.56173c.3002-.24014.7114-.28696 1.0579-.12044z"/><path d="m3.19173 6.60601 11.80827 11.80829v2.5857c0 .3844-.2203.7348-.5668.9013s-.7577.1197-1.0579-.1204l-4.45217-3.5618c-.17731-.1418-.39762-.2191-.62469-.2191h-3.29844c-1.65685 0-3-1.3432-3-3v-6.00001c0-.97777.46777-1.84629 1.19173-2.39398z"/></g></svg>